<svg xmlns="http://www.w3.org/2000/svg" xmlns:xlink="http://www.w3.org/1999/xlink" width="500"
    zoomAndPan="magnify" viewBox="0 0 375 93.749996" height="125"
    preserveAspectRatio="xMidYMid meet" version="1.0">
    <defs>
        <g />
    </defs>
    <g fill="#ffffff" fill-opacity="1">
        <g transform="translate(80.232058, 69.04942)">
            <g>
                <path
                    d="M 0 -6.964844 C 0 -1.265625 2.925781 2.058594 8.070312 2.058594 C 12.816406 2.058594 18.121094 -0.710938 21.917969 -3.480469 C 22.867188 -1.582031 23.578125 0.710938 23.578125 3.5625 L 23.578125 4.273438 L 23.421875 6.644531 C 23.339844 7.675781 24.210938 8.148438 25.003906 8.148438 C 25.953125 8.148438 27.21875 7.4375 27.21875 5.777344 L 27.21875 3.71875 C 27.21875 -0.316406 26.425781 -3.480469 25.082031 -6.011719 C 34.339844 -13.847656 50.480469 -35.132812 50.480469 -48.265625 C 50.480469 -55.386719 45.8125 -58.949219 39.324219 -58.949219 C 23.972656 -58.949219 0.476562 -38.929688 0.476562 -23.894531 C 0.476562 -22.15625 0.792969 -20.414062 1.503906 -18.988281 L 1.582031 -18.832031 C 1.820312 -18.355469 1.976562 -17.882812 1.976562 -17.089844 C 1.976562 -16.695312 1.976562 -16.140625 1.742188 -15.507812 L 0.949219 -13.054688 C 0.238281 -10.761719 0 -8.703125 0 -6.964844 Z M 4.195312 -24.449219 C 4.195312 -36.949219 26.191406 -55.464844 39.402344 -55.464844 C 44.152344 -55.464844 47.632812 -53.011719 47.632812 -47.554688 C 47.632812 -35.84375 31.808594 -15.269531 23.578125 -8.230469 C 20.414062 -12.265625 15.824219 -14.085938 11.15625 -15.902344 C 10.128906 -16.300781 9.179688 -16.773438 8.703125 -17.089844 C 7.914062 -17.644531 7.515625 -18.121094 7.515625 -18.753906 C 7.515625 -19.226562 7.753906 -19.78125 8.230469 -20.730469 C 11.949219 -28.167969 25.636719 -45.8125 34.101562 -45.8125 C 35.683594 -45.8125 36.398438 -45.179688 36.398438 -43.835938 C 36.398438 -38.21875 24.449219 -25.160156 19.621094 -22.789062 C 18.515625 -22.234375 18.199219 -21.679688 18.199219 -21.125 C 18.199219 -20.414062 18.753906 -19.859375 19.464844 -19.859375 C 19.703125 -19.859375 19.9375 -19.859375 20.492188 -20.175781 C 26.347656 -23.5 38.851562 -36.238281 38.851562 -44.230469 C 38.851562 -47.394531 37.03125 -49.292969 33.628906 -49.292969 C 23.105469 -49.292969 9.730469 -31.730469 5.300781 -23.5 L 5.300781 -23.421875 C 5.144531 -23.105469 4.90625 -22.867188 4.667969 -22.867188 C 4.429688 -22.867188 4.195312 -23.261719 4.195312 -24.449219 Z M 3.878906 -6.566406 C 3.878906 -8.070312 4.113281 -9.8125 4.667969 -11.710938 L 4.828125 -12.265625 C 4.90625 -12.660156 4.984375 -12.976562 5.0625 -13.132812 C 5.300781 -13.6875 5.695312 -13.925781 6.09375 -13.925781 C 6.566406 -13.925781 7.042969 -13.6875 7.515625 -13.53125 L 9.730469 -12.582031 C 13.292969 -11.234375 17.644531 -9.496094 20.492188 -5.777344 C 17.40625 -3.5625 12.5 -0.792969 8.703125 -0.792969 C 5.460938 -0.792969 3.878906 -2.925781 3.878906 -6.566406 Z M 3.878906 -6.566406 " />
            </g>
        </g>
    </g>
    <g fill="#ffffff" fill-opacity="1">
        <g transform="translate(117.494158, 69.04942)">
            <g>
                <path
                    d="M -2.691406 -7.992188 C -2.691406 -5.378906 -0.710938 -3.878906 2.136719 -3.878906 C 3.957031 -3.878906 6.25 -4.511719 8.546875 -5.855469 C 9.96875 -6.726562 11 -7.042969 11.949219 -7.042969 C 12.898438 -7.042969 13.765625 -6.644531 14.480469 -5.777344 C 15.269531 -4.746094 16.457031 -4.351562 17.644531 -4.351562 C 22.074219 -4.351562 28.011719 -9.652344 31.175781 -12.738281 L 31.253906 -12.816406 C 31.570312 -13.132812 31.648438 -13.449219 31.648438 -13.765625 C 31.648438 -14.402344 31.015625 -14.953125 30.304688 -14.953125 C 29.910156 -14.953125 29.433594 -14.796875 29.117188 -14.402344 C 26.742188 -11.394531 21.363281 -7.4375 18.355469 -7.4375 C 17.25 -7.4375 16.617188 -8.070312 16.617188 -9.179688 C 16.617188 -10.046875 17.011719 -11.15625 17.882812 -12.5 C 19.148438 -14.480469 22.3125 -17.722656 24.292969 -20.019531 L 26.191406 -22.234375 C 26.585938 -22.628906 26.742188 -23.105469 26.742188 -23.5 C 26.742188 -24.609375 25.636719 -25.320312 24.609375 -25.320312 C 23.972656 -25.320312 23.261719 -25.003906 22.867188 -24.527344 C 19.703125 -20.730469 8.625 -6.488281 3.402344 -6.488281 C 2.292969 -6.488281 1.742188 -7.121094 1.742188 -8.230469 C 1.742188 -9.179688 2.136719 -10.367188 2.925781 -11.710938 C 4.351562 -14.085938 7.832031 -18.039062 9.890625 -20.414062 L 11.394531 -22.15625 C 11.789062 -22.550781 11.949219 -23.105469 11.949219 -23.5 C 11.949219 -24.609375 10.917969 -25.320312 9.96875 -25.320312 C 9.257812 -25.320312 8.464844 -24.925781 7.914062 -24.210938 L 5.933594 -21.839844 C 3.5625 -19.070312 0.316406 -15.269531 -1.265625 -12.5 C -2.292969 -10.761719 -2.691406 -9.257812 -2.691406 -7.992188 Z M -2.691406 -7.992188 " />
            </g>
        </g>
    </g>
    <g fill="#ffffff" fill-opacity="1">
        <g transform="translate(145.500013, 69.04942)">
            <g>
                <path
                    d="M 5.855469 -3.007812 C 9.496094 -3.007812 13.214844 -5.378906 15.984375 -7.675781 C 16.695312 -7.515625 17.40625 -7.515625 18.039062 -7.515625 C 22.390625 -7.515625 25.320312 -9.96875 28.722656 -12.816406 C 29.039062 -13.054688 29.117188 -13.449219 29.117188 -13.6875 C 29.117188 -14.402344 28.40625 -14.953125 27.773438 -14.953125 C 27.375 -14.953125 27.058594 -14.71875 26.664062 -14.480469 L 26.109375 -14.085938 C 23.183594 -12.027344 20.96875 -10.128906 18.4375 -10.128906 C 20.730469 -12.660156 22.234375 -15.429688 22.234375 -18.277344 C 22.234375 -19.304688 22.074219 -20.253906 21.601562 -21.285156 C 20.890625 -23.738281 17.960938 -25.242188 15.429688 -25.242188 C 13.765625 -25.242188 11.710938 -24.609375 10.128906 -23.421875 L 9.8125 -23.183594 C 9.257812 -22.707031 8.703125 -22.234375 7.914062 -22.234375 C 7.675781 -22.234375 7.515625 -22.3125 7.28125 -22.3125 C 7.042969 -22.3125 6.804688 -22.390625 6.566406 -22.390625 C 2.769531 -22.390625 -1.109375 -13.765625 -1.109375 -9.652344 C -1.109375 -6.171875 1.582031 -3.007812 5.855469 -3.007812 Z M 15.113281 -22.550781 C 16.695312 -22.550781 18.121094 -21.839844 19.070312 -20.097656 C 19.304688 -19.542969 19.386719 -18.988281 19.386719 -18.4375 C 19.386719 -16.140625 17.328125 -10.917969 14.480469 -10.917969 C 11.710938 -10.917969 9.257812 -14.242188 9.257812 -17.011719 C 9.257812 -19.9375 12.183594 -22.550781 15.113281 -22.550781 Z M 5.378906 -15.824219 C 5.695312 -15.824219 6.011719 -15.667969 6.171875 -15.269531 C 6.804688 -12.738281 9.257812 -11 11.949219 -8.941406 C 12.105469 -8.78125 12.183594 -8.625 12.183594 -8.464844 C 12.183594 -8.148438 11.867188 -7.753906 11.394531 -7.515625 L 10.128906 -6.804688 C 8.546875 -5.933594 7.199219 -5.695312 6.171875 -5.695312 C 3.71875 -5.695312 2.609375 -7.28125 2.609375 -9.097656 C 2.609375 -11 3.796875 -15.824219 5.378906 -15.824219 Z M 5.378906 -15.824219 " />
            </g>
        </g>
    </g>
    <g fill="#ffffff" fill-opacity="1">
        <g transform="translate(170.895132, 69.04942)">
            <g>
                <path
                    d="M -4.113281 -31.097656 C -4.113281 -30.382812 -3.480469 -29.671875 -2.53125 -29.671875 C -2.136719 -29.671875 -1.742188 -29.75 -0.871094 -30.226562 C 1.1875 -31.332031 3.402344 -31.886719 5.777344 -31.886719 C 7.675781 -31.886719 9.652344 -31.570312 11.867188 -31.175781 L 10.601562 -29.511719 C 7.121094 -25.003906 -1.109375 -14.480469 -2.136719 -9.496094 C -2.214844 -9.019531 -2.292969 -8.625 -2.292969 -8.230469 C -2.292969 -5.855469 -0.710938 -4.113281 2.453125 -4.113281 C 8.148438 -4.113281 16.0625 -9.730469 19.226562 -12.898438 L 19.304688 -12.976562 C 19.621094 -13.214844 19.78125 -13.609375 19.78125 -13.847656 C 19.78125 -14.480469 19.148438 -14.953125 18.277344 -14.953125 C 17.882812 -14.953125 17.488281 -14.875 17.25 -14.636719 L 17.167969 -14.558594 C 14.71875 -11.949219 7.832031 -7.121094 4.195312 -7.121094 C 2.769531 -7.121094 2.136719 -7.914062 2.136719 -9.019531 C 2.136719 -9.335938 2.214844 -9.652344 2.292969 -10.046875 C 3.242188 -14.71875 10.917969 -23.738281 15.035156 -28.800781 L 16.378906 -30.460938 C 18.199219 -30.144531 19.859375 -29.910156 20.730469 -29.910156 C 23.261719 -29.910156 31.175781 -31.648438 31.175781 -33.785156 C 31.175781 -34.65625 30.144531 -35.050781 29.511719 -35.050781 C 29.039062 -35.050781 28.644531 -34.894531 28.328125 -34.734375 C 25.320312 -33.230469 23.65625 -32.519531 21.523438 -32.519531 C 20.570312 -32.519531 19.464844 -32.597656 18.199219 -32.757812 L 20.414062 -35.367188 C 20.730469 -35.683594 20.890625 -36.082031 20.890625 -36.476562 C 20.890625 -37.582031 19.78125 -38.296875 18.753906 -38.296875 C 18.121094 -38.296875 17.488281 -38.058594 16.617188 -37.03125 L 13.6875 -33.46875 L 11.867188 -33.785156 C 9.414062 -34.179688 7.28125 -34.65625 5.855469 -34.65625 C 3.324219 -34.65625 -4.113281 -33.3125 -4.113281 -31.097656 Z M -4.113281 -31.097656 " />
            </g>
        </g>
    </g>
    <g fill="#ffffff" fill-opacity="1">
        <g transform="translate(186.875777, 69.04942)">
            <g>
                <path
                    d="M -1.820312 -9.257812 C -1.820312 -6.328125 0.238281 -4.195312 3.324219 -4.195312 C 4.589844 -4.195312 6.09375 -4.351562 7.675781 -5.378906 L 9.414062 -6.488281 C 10.601562 -7.199219 11.632812 -7.832031 12.34375 -7.832031 C 12.738281 -7.832031 13.054688 -7.675781 13.214844 -7.28125 C 13.847656 -5.300781 15.746094 -4.113281 17.960938 -4.113281 C 22.789062 -4.113281 28.960938 -9.496094 32.679688 -12.738281 C 33.074219 -13.132812 33.3125 -13.609375 33.3125 -14.003906 C 33.3125 -14.636719 32.835938 -15.191406 32.125 -15.191406 C 31.648438 -15.191406 31.175781 -14.953125 30.621094 -14.480469 C 28.5625 -12.738281 23.5 -7.832031 19.859375 -7.832031 C 18.515625 -7.832031 18.199219 -8.546875 18.199219 -9.335938 C 18.199219 -12.738281 23.5 -18.277344 25.558594 -19.859375 C 26.425781 -20.570312 26.664062 -21.125 26.664062 -21.523438 C 26.664062 -22.472656 25.714844 -23.339844 24.6875 -23.339844 C 24.449219 -23.339844 24.210938 -23.261719 23.972656 -23.183594 C 22.472656 -23.183594 21.757812 -23.578125 20.808594 -23.972656 L 20.414062 -24.132812 C 19.070312 -24.6875 17.722656 -25.160156 16.300781 -25.160156 C 9.496094 -25.160156 -1.820312 -15.984375 -1.820312 -9.257812 Z M 2.609375 -10.917969 C 2.609375 -15.746094 11.867188 -22.472656 16.21875 -22.472656 C 17.722656 -22.472656 18.753906 -21.679688 18.753906 -20.253906 C 18.753906 -16.378906 9.496094 -8.386719 5.222656 -8.386719 C 3.640625 -8.386719 2.609375 -9.257812 2.609375 -10.917969 Z M 2.609375 -10.917969 " />
            </g>
        </g>
    </g>
    <g fill="#ffffff" fill-opacity="1">
        <g transform="translate(216.384788, 69.04942)">
            <g>
                <path
                    d="M -6.964844 -3.796875 C -6.964844 -2.769531 -6.171875 -1.976562 -5.144531 -1.976562 C -4.511719 -1.976562 -3.957031 -2.214844 -3.5625 -2.769531 L 4.984375 -15.269531 C 7.199219 -17.722656 11 -20.492188 14.480469 -20.492188 C 16.457031 -20.492188 17.722656 -19.542969 17.722656 -17.960938 C 17.722656 -16.535156 16.695312 -13.132812 15.429688 -13.132812 C 15.351562 -13.132812 15.191406 -13.214844 14.003906 -13.6875 C 12.816406 -14.164062 11.394531 -14.875 9.652344 -14.875 L 9.257812 -14.875 L 8.308594 -14.796875 C 5.378906 -14.558594 2.847656 -12.898438 2.453125 -9.019531 L 2.375 -8.308594 C 2.375 -4.589844 5.0625 -2.691406 8.464844 -2.691406 C 12.738281 -2.691406 16.300781 -5.777344 18.671875 -9.257812 L 21.601562 -9.019531 L 22.074219 -9.019531 C 24.210938 -9.019531 25.320312 -10.128906 26.664062 -11.472656 C 28.246094 -13.054688 28.484375 -13.292969 28.484375 -13.6875 C 28.484375 -14.320312 27.851562 -14.875 27.140625 -14.875 C 26.742188 -14.875 26.347656 -14.796875 25.953125 -14.402344 L 25.398438 -13.847656 C 23.972656 -12.421875 23.023438 -11.550781 20.96875 -11.550781 L 20.019531 -11.632812 C 21.125 -13.609375 21.757812 -15.746094 21.757812 -17.644531 C 21.757812 -21.125 19.542969 -23.816406 13.53125 -23.816406 C 13.292969 -23.738281 12.898438 -23.65625 12.5 -23.65625 C 12.027344 -23.65625 11.550781 -23.816406 11.550781 -24.371094 C 11.550781 -25.558594 13.449219 -26.664062 14.402344 -27.21875 C 18.910156 -29.828125 22.628906 -32.203125 25.082031 -35.050781 C 26.664062 -36.949219 27.21875 -38.375 27.21875 -39.640625 C 27.21875 -41.699219 25.953125 -43.121094 23.972656 -43.121094 C 22.3125 -43.121094 20.175781 -42.015625 17.882812 -39.402344 C 16.535156 -37.820312 14.875 -35.765625 13.371094 -33.546875 L -6.644531 -4.828125 C -6.882812 -4.511719 -6.964844 -4.195312 -6.964844 -3.796875 Z M 5.0625 -9.414062 C 5.0625 -11.710938 7.199219 -12.421875 8.863281 -12.421875 C 10.207031 -12.421875 13.847656 -11.949219 13.847656 -10.285156 C 13.847656 -8.464844 9.257812 -6.726562 7.359375 -6.726562 C 6.171875 -6.726562 5.0625 -7.359375 5.0625 -9.019531 Z M 23.65625 -39.085938 C 24.054688 -39.085938 24.371094 -38.769531 24.371094 -38.375 C 24.371094 -36.398438 17.644531 -31.332031 16.617188 -31.332031 C 16.535156 -31.332031 16.457031 -31.414062 16.457031 -31.492188 C 16.457031 -32.441406 21.757812 -39.085938 23.65625 -39.085938 Z M 23.65625 -39.085938 " />
            </g>
        </g>
    </g>
    <g fill="#ffffff" fill-opacity="1">
        <g transform="translate(241.226116, 69.04942)">
            <g>
                <path
                    d="M -1.503906 -8.148438 C -1.503906 -5.144531 0.160156 -3.480469 2.847656 -3.480469 C 7.675781 -3.480469 14.003906 -8.386719 18.355469 -12.898438 C 18.59375 -13.214844 18.832031 -13.449219 18.832031 -13.765625 C 18.832031 -14.480469 18.121094 -15.035156 17.328125 -15.035156 C 17.011719 -15.035156 16.695312 -14.875 16.378906 -14.558594 C 12.34375 -10.523438 7.121094 -6.726562 4.195312 -6.726562 C 2.847656 -6.726562 2.292969 -7.515625 2.292969 -8.941406 C 2.292969 -12.421875 5.695312 -17.488281 8.386719 -19.859375 C 14.953125 -25.714844 20.414062 -30.304688 23.339844 -34.023438 C 25.476562 -36.792969 26.425781 -39.085938 26.425781 -40.75 C 26.425781 -42.570312 25.398438 -43.597656 23.738281 -43.597656 C 21.679688 -43.597656 18.671875 -42.09375 15.429688 -38.453125 L 11.472656 -33.46875 C 7.121094 -27.613281 -1.503906 -15.035156 -1.503906 -8.148438 Z M 11.949219 -27.21875 L 14.875 -31.414062 L 18.910156 -36.398438 C 20.890625 -38.613281 22.234375 -39.5625 22.789062 -39.5625 C 23.023438 -39.5625 23.183594 -39.402344 23.183594 -39.085938 C 23.183594 -36.554688 13.214844 -26.507812 11.949219 -26.507812 C 11.789062 -26.507812 11.710938 -26.585938 11.710938 -26.742188 C 11.710938 -26.824219 11.789062 -27.058594 11.949219 -27.21875 Z M 11.949219 -27.21875 " />
            </g>
        </g>
    </g>
    <g fill="#ffffff" fill-opacity="1">
        <g transform="translate(256.336516, 69.04942)">
            <g>
                <path
                    d="M 8.464844 -4.351562 C 15.667969 -4.351562 21.679688 -7.753906 26.980469 -12.898438 C 27.296875 -13.214844 27.375 -13.53125 27.375 -13.765625 C 27.375 -14.480469 26.664062 -15.035156 25.953125 -15.035156 C 25.636719 -15.035156 25.242188 -14.875 25.003906 -14.636719 C 20.808594 -10.445312 15.585938 -7.121094 9.730469 -7.121094 C 6.882812 -7.121094 3.957031 -7.914062 3.957031 -10.523438 C 3.957031 -11.472656 4.273438 -12.34375 5.539062 -12.582031 C 9.96875 -12.976562 21.125 -14.875 21.125 -20.570312 C 21.125 -23.183594 18.753906 -25.160156 15.269531 -25.160156 C 8.464844 -25.160156 -0.792969 -17.566406 -0.792969 -10.761719 C -0.792969 -7.042969 2.136719 -4.351562 8.464844 -4.351562 Z M 15.191406 -21.285156 C 16.300781 -21.285156 17.328125 -20.652344 17.328125 -19.703125 C 17.328125 -16.773438 9.097656 -15.667969 7.28125 -15.269531 L 6.882812 -15.191406 C 6.171875 -15.191406 6.011719 -15.429688 6.011719 -15.746094 C 6.011719 -17.804688 12.660156 -21.285156 15.191406 -21.285156 Z M 15.191406 -21.285156 " />
            </g>
        </g>
    </g>
    <path stroke-linecap="butt" transform="matrix(0.485886, 0, 0, 0.485886, 272.160922, 7.238403)"
        fill="none" stroke-linejoin="miter"
        d="M 7.105291 42.102308 C 10.120082 40.695406 12.564072 38.572993 14.437262 35.727031 C 16.326531 32.864989 17.275185 30.195895 17.275185 27.711707 L 10.570291 19.061267 C 10.634606 17.019249 11.237564 15.113901 12.371126 13.369342 C 13.528805 11.600665 15.056299 10.193763 16.945568 9.148635 C 18.834837 8.087429 20.836658 7.556826 22.942992 7.556826 C 26.086414 7.556826 28.578641 8.642151 30.419673 10.8128 C 32.284824 12.983449 33.209359 15.580189 33.209359 18.59498 C 33.209359 22.936278 32.204429 27.028354 30.186529 30.871208 C 28.168629 34.7221 25.306588 38.002193 21.584326 40.719524 C 17.886183 43.436856 13.536845 45.302006 8.552391 46.323015 Z M 35.532758 42.102308 C 38.53147 40.695406 40.97546 38.572993 42.864729 35.727031 C 44.753998 32.864989 45.702652 30.195895 45.702652 27.711707 L 38.973639 19.061267 C 39.037955 17.019249 39.648952 15.113901 40.806632 13.369342 C 41.964312 11.600665 43.475727 10.193763 45.348917 9.148635 C 47.238186 8.087429 49.240007 7.556826 51.35438 7.556826 C 54.489762 7.556826 56.990029 8.642151 58.855179 10.8128 C 60.712291 12.983449 61.636826 15.580189 61.636826 18.59498 C 61.636826 22.936278 60.631896 27.028354 58.613996 30.871208 C 56.604136 34.7221 53.734055 38.002193 50.011793 40.719524 C 46.297571 43.436856 41.948233 45.302006 36.963779 46.323015 Z M 35.532758 42.102308 "
        stroke="#006032" stroke-width="2.76" stroke-opacity="1" stroke-miterlimit="4" />
    <g fill="#00bf63" fill-opacity="1">
        <g transform="translate(272.160922, 47.566917)">
            <g>
                <path
                    d="M 3.453125 -19.875 C 4.910156 -20.550781 6.097656 -21.582031 7.015625 -22.96875 C 7.929688 -24.351562 8.390625 -25.648438 8.390625 -26.859375 L 5.125 -31.0625 C 5.15625 -32.0625 5.453125 -32.988281 6.015625 -33.84375 C 6.578125 -34.695312 7.316406 -35.378906 8.234375 -35.890625 C 9.148438 -36.398438 10.117188 -36.65625 11.140625 -36.65625 C 12.671875 -36.65625 13.882812 -36.125 14.78125 -35.0625 C 15.6875 -34.007812 16.140625 -32.753906 16.140625 -31.296875 C 16.140625 -29.179688 15.648438 -27.191406 14.671875 -25.328125 C 13.691406 -23.460938 12.296875 -21.867188 10.484375 -20.546875 C 8.679688 -19.222656 6.570312 -18.3125 4.15625 -17.8125 Z M 17.25 -19.875 C 18.71875 -20.550781 19.910156 -21.582031 20.828125 -22.96875 C 21.742188 -24.351562 22.203125 -25.648438 22.203125 -26.859375 L 18.9375 -31.0625 C 18.96875 -32.0625 19.257812 -32.988281 19.8125 -33.84375 C 20.375 -34.695312 21.113281 -35.378906 22.03125 -35.890625 C 22.945312 -36.398438 23.921875 -36.65625 24.953125 -36.65625 C 26.472656 -36.65625 27.679688 -36.125 28.578125 -35.0625 C 29.484375 -34.007812 29.9375 -32.753906 29.9375 -31.296875 C 29.9375 -29.179688 29.445312 -27.191406 28.46875 -25.328125 C 27.488281 -23.460938 26.097656 -21.867188 24.296875 -20.546875 C 22.492188 -19.222656 20.378906 -18.3125 17.953125 -17.8125 Z M 17.25 -19.875 " />
            </g>
        </g>
    </g>
</svg>