<svg xmlns="http://www.w3.org/2000/svg" xmlns:xlink="http://www.w3.org/1999/xlink" width="500"
    zoomAndPan="magnify" viewBox="0 0 375 93.749996" height="125"
    preserveAspectRatio="xMidYMid meet" version="1.0">
    <defs>
        <g />
    </defs>
    <g fill="#ffffff" fill-opacity="1">
        <g transform="translate(65.626773, 63.954448)">
            <g>
                <path
                    d="M 44.371094 1.988281 C 42.9375 2.316406 40.507812 4.027344 35.871094 4.027344 C 31.566406 4.027344 27.59375 2.59375 24.613281 0.277344 C 33.71875 -1.269531 40.398438 -8.996094 40.398438 -19.371094 C 40.398438 -30.738281 32.175781 -39.734375 21.082031 -39.734375 C 9.546875 -39.734375 1.710938 -31.347656 1.710938 -19.480469 C 1.710938 -9.050781 8.941406 -0.773438 18.820312 0.386719 C 23.289062 6.179688 28.421875 9.769531 35.707031 9.769531 C 42.21875 9.769531 44.921875 5.960938 45.476562 3.917969 C 45.804688 2.648438 45.363281 1.929688 44.371094 1.988281 Z M 9.824219 -26.046875 C 9.824219 -32.175781 13.023438 -36.148438 18.101562 -36.148438 C 25.882812 -36.148438 32.007812 -23.839844 32.007812 -13.023438 C 32.007812 -7.285156 28.699219 -3.035156 23.566406 -3.035156 C 15.839844 -3.035156 9.824219 -14.734375 9.824219 -26.046875 Z M 9.824219 -26.046875 " />
            </g>
        </g>
    </g>
    <g fill="#ffffff" fill-opacity="1">
        <g transform="translate(106.843745, 63.954448)">
            <g>
                <path
                    d="M 28.640625 -5.628906 L 28.640625 -25.828125 C 28.640625 -26.765625 27.980469 -26.988281 26.546875 -26.820312 L 19.480469 -25.773438 C 18.820312 -25.664062 18.378906 -25.164062 18.378906 -24.613281 L 18.378906 -24.449219 C 18.378906 -23.234375 20.585938 -22.683594 20.585938 -20.253906 L 20.585938 -9.050781 C 20.585938 -5.132812 18.488281 -2.59375 15.839844 -2.59375 C 12.804688 -2.59375 11.257812 -4.96875 11.257812 -10.097656 L 11.425781 -25.828125 C 11.425781 -26.765625 10.597656 -26.988281 9.160156 -26.820312 L 2.207031 -25.773438 C 1.488281 -25.664062 1.046875 -25.164062 1.046875 -24.613281 L 1.046875 -24.449219 C 1.046875 -23.234375 3.199219 -22.683594 3.199219 -20.253906 L 3.199219 -10.925781 C 3.199219 -3.367188 7.78125 0.550781 13.464844 0.550781 C 17.273438 0.550781 19.976562 -0.828125 21.46875 -3.257812 C 21.632812 -0.550781 23.234375 0.332031 26.378906 0.332031 C 29.46875 0.332031 31.292969 0 31.292969 -1.269531 C 31.292969 -3.3125 28.640625 -1.269531 28.640625 -5.628906 Z M 28.640625 -5.628906 " />
            </g>
        </g>
    </g>
    <g fill="#ffffff" fill-opacity="1">
        <g transform="translate(138.294395, 63.954448)">
            <g>
                <path
                    d="M 16.5 0.550781 C 24.558594 0.550781 30.519531 -5.296875 30.519531 -13.132812 C 30.519531 -20.972656 24.171875 -27.042969 15.671875 -27.042969 C 7.945312 -27.042969 1.378906 -21.414062 1.378906 -13.410156 C 1.378906 -5.738281 7.617188 0.550781 16.5 0.550781 Z M 17.496094 -1.875 C 12.472656 -1.875 9.492188 -10.925781 9.492188 -16.554688 C 9.492188 -21.800781 11.257812 -24.613281 14.570312 -24.613281 C 19.261719 -24.613281 22.242188 -15.894531 22.242188 -9.878906 C 22.242188 -4.800781 20.476562 -1.875 17.496094 -1.875 Z M 17.496094 -1.875 " />
            </g>
        </g>
    </g>
    <g fill="#ffffff" fill-opacity="1">
        <g transform="translate(169.469159, 63.954448)">
            <g>
                <path
                    d="M 12.527344 0.550781 C 18.046875 0.550781 21.027344 -3.53125 21.027344 -7.503906 C 21.027344 -8.554688 19.703125 -8.773438 19.039062 -7.835938 C 18.597656 -6.566406 17.496094 -5.351562 15.285156 -5.351562 C 13.6875 -5.351562 12.472656 -6.675781 12.472656 -8.886719 L 12.472656 -23.289062 L 18.820312 -23.289062 C 19.425781 -23.289062 19.921875 -23.730469 19.921875 -24.394531 L 19.921875 -25.332031 C 19.921875 -25.992188 19.425781 -26.488281 18.820312 -26.488281 L 12.472656 -26.488281 L 12.417969 -31.953125 C 12.417969 -32.78125 11.976562 -33.277344 11.203125 -33.277344 L 10.097656 -33.277344 C 9.492188 -33.277344 8.996094 -32.78125 8.828125 -31.953125 C 8.222656 -28.699219 6.070312 -26.488281 2.980469 -26.488281 L 1.601562 -26.488281 C 0.882812 -26.488281 0.496094 -26.046875 0.496094 -25.332031 L 0.496094 -24.394531 C 0.496094 -23.730469 0.9375 -23.289062 1.601562 -23.289062 L 4.195312 -23.289062 L 4.195312 -8.996094 C 4.195312 -2.703125 7.503906 0.550781 12.527344 0.550781 Z M 12.527344 0.550781 " />
            </g>
        </g>
    </g>
    <g fill="#ffffff" fill-opacity="1">
        <g transform="translate(190.04993, 63.954448)">
            <g>
                <path
                    d="M 31.015625 -24.171875 L 31.015625 -24.335938 C 31.015625 -25.109375 30.628906 -25.550781 29.855469 -25.71875 L 24.0625 -26.710938 C 22.628906 -26.988281 21.6875 -26.378906 21.6875 -25.332031 L 21.6875 -24.226562 C 19.976562 -25.9375 17.605469 -27.042969 14.460938 -27.042969 C 7.394531 -27.042969 1.433594 -21.46875 1.433594 -13.300781 C 1.433594 -4.414062 7.671875 0.550781 14.402344 0.550781 C 17.273438 0.550781 19.976562 -0.496094 21.6875 -2.539062 L 21.6875 -1.214844 C 21.6875 -0.496094 22.242188 0 22.957031 0 L 29.746094 0 C 30.464844 0 30.851562 -0.332031 30.851562 -0.9375 L 30.851562 -1.105469 C 30.851562 -2.429688 28.699219 -2.980469 28.699219 -5.296875 L 28.699219 -19.757812 C 28.699219 -22.460938 31.015625 -23.125 31.015625 -24.171875 Z M 16.226562 -1.820312 C 11.644531 -1.988281 9.105469 -10.484375 9.328125 -16.554688 C 9.4375 -21.6875 11.535156 -24.667969 14.902344 -24.667969 C 18.15625 -24.667969 20.917969 -21.300781 20.917969 -17.4375 L 20.917969 -7.726562 C 20.917969 -3.808594 18.488281 -1.820312 16.226562 -1.820312 Z M 16.226562 -1.820312 " />
            </g>
        </g>
    </g>
    <g fill="#ffffff" fill-opacity="1">
        <g transform="translate(221.997171, 63.954448)">
            <g>
                <path
                    d="M 18.15625 -27.042969 C 15.507812 -27.042969 13.246094 -26.269531 11.699219 -24.835938 L 11.699219 -40.289062 C 11.699219 -41.667969 10.652344 -41.996094 9.382812 -41.390625 L 2.261719 -38.078125 C 1.269531 -37.636719 0.992188 -37.363281 0.992188 -36.753906 L 0.992188 -36.589844 C 0.992188 -35.210938 3.53125 -34.878906 3.53125 -32.394531 L 3.53125 -5.351562 C 3.53125 -2.980469 1.378906 -2.429688 1.378906 -1.105469 L 1.378906 -0.9375 C 1.378906 -0.332031 1.820312 0 2.539062 0 L 9.65625 0.0546875 C 10.484375 0.0546875 10.925781 -0.277344 10.925781 -1.160156 L 10.925781 -2.375 C 12.691406 -0.496094 15.066406 0.550781 18.15625 0.550781 C 25.054688 0.550781 31.015625 -5.1875 31.015625 -13.6875 C 31.015625 -22.351562 24.558594 -27.042969 18.15625 -27.042969 Z M 17.328125 -1.820312 C 14.460938 -1.820312 11.699219 -5.351562 11.699219 -9.105469 L 11.699219 -19.09375 C 11.699219 -22.40625 13.632812 -24.667969 16.171875 -24.667969 C 20.585938 -24.667969 22.957031 -17.328125 22.957031 -10.375 C 22.957031 -4.855469 20.917969 -1.820312 17.328125 -1.820312 Z M 17.328125 -1.820312 " />
            </g>
        </g>
    </g>
    <g fill="#ffffff" fill-opacity="1">
        <g transform="translate(253.613359, 63.954448)">
            <g>
                <path
                    d="M 2.703125 0 L 12.859375 0 C 13.578125 0 14.128906 -0.386719 14.128906 -0.9375 L 14.128906 -1.160156 C 14.128906 -2.539062 11.753906 -2.980469 11.753906 -5.296875 L 11.753906 -40.398438 C 11.753906 -41.335938 10.925781 -42.109375 9.492188 -41.390625 L 2.539062 -37.96875 C 1.875 -37.691406 1.433594 -37.417969 1.433594 -36.867188 L 1.433594 -36.644531 C 1.433594 -35.484375 3.585938 -34.933594 3.585938 -32.449219 L 3.585938 -5.296875 C 3.585938 -2.980469 1.433594 -2.539062 1.433594 -1.160156 L 1.433594 -0.9375 C 1.433594 -0.386719 1.929688 0 2.703125 0 Z M 2.703125 0 " />
            </g>
        </g>
    </g>
    <g fill="#ffffff" fill-opacity="1">
        <g transform="translate(268.235026, 63.954448)">
            <g>
                <path
                    d="M 24.394531 -8.386719 C 23.34375 -6.675781 21.027344 -5.1875 17.824219 -5.1875 C 14.128906 -5.1875 11.3125 -7.449219 9.878906 -10.980469 C 11.867188 -10.816406 14.238281 -10.816406 16.667969 -11.3125 C 21.855469 -12.25 25.496094 -15.34375 25.496094 -19.316406 C 25.496094 -24.171875 21.136719 -27.097656 14.957031 -27.042969 C 7.503906 -26.988281 1.433594 -21.578125 1.433594 -13.464844 C 1.433594 -5.078125 7.175781 0.550781 15.285156 0.550781 C 22.683594 0.550781 25.992188 -4.582031 26.269531 -7.78125 C 26.378906 -8.941406 25.054688 -9.214844 24.394531 -8.386719 Z M 13.90625 -24.503906 C 16.28125 -24.503906 17.9375 -22.296875 17.992188 -19.648438 C 17.992188 -15.839844 16.5 -14.347656 14.183594 -13.90625 C 12.75 -13.578125 10.816406 -13.519531 9.105469 -13.632812 C 8.886719 -14.734375 8.773438 -15.894531 8.773438 -17.109375 C 8.773438 -21.359375 10.816406 -24.503906 13.90625 -24.503906 Z M 13.90625 -24.503906 " />
            </g>
        </g>
    </g>
    <path stroke-linecap="butt" transform="matrix(0.485886, 0, 0, 0.485886, 272.160922, 7.238403)"
        fill="none" stroke-linejoin="miter"
        d="M 7.105291 42.102308 C 10.120082 40.695406 12.564072 38.572993 14.437262 35.727031 C 16.326531 32.864989 17.275185 30.195895 17.275185 27.711707 L 10.570291 19.061267 C 10.634606 17.019249 11.237564 15.113901 12.371126 13.369342 C 13.528805 11.600665 15.056299 10.193763 16.945568 9.148635 C 18.834837 8.087429 20.836658 7.556826 22.942992 7.556826 C 26.086414 7.556826 28.578641 8.642151 30.419673 10.8128 C 32.284824 12.983449 33.209359 15.580189 33.209359 18.59498 C 33.209359 22.936278 32.204429 27.028354 30.186529 30.871208 C 28.168629 34.7221 25.306588 38.002193 21.584326 40.719524 C 17.886183 43.436856 13.536845 45.302006 8.552391 46.323015 Z M 35.532758 42.102308 C 38.53147 40.695406 40.97546 38.572993 42.864729 35.727031 C 44.753998 32.864989 45.702652 30.195895 45.702652 27.711707 L 38.973639 19.061267 C 39.037955 17.019249 39.648952 15.113901 40.806632 13.369342 C 41.964312 11.600665 43.475727 10.193763 45.348917 9.148635 C 47.238186 8.087429 49.240007 7.556826 51.35438 7.556826 C 54.489762 7.556826 56.990029 8.642151 58.855179 10.8128 C 60.712291 12.983449 61.636826 15.580189 61.636826 18.59498 C 61.636826 22.936278 60.631896 27.028354 58.613996 30.871208 C 56.604136 34.7221 53.734055 38.002193 50.011793 40.719524 C 46.297571 43.436856 41.948233 45.302006 36.963779 46.323015 Z M 35.532758 42.102308 "
        stroke="#006032" stroke-width="2.76" stroke-opacity="1" stroke-miterlimit="4" />
    <g fill="#00bf63" fill-opacity="1">
        <g transform="translate(272.160922, 47.566917)">
            <g>
                <path
                    d="M 3.453125 -19.875 C 4.910156 -20.550781 6.097656 -21.582031 7.015625 -22.96875 C 7.929688 -24.351562 8.390625 -25.648438 8.390625 -26.859375 L 5.125 -31.0625 C 5.15625 -32.0625 5.453125 -32.988281 6.015625 -33.84375 C 6.578125 -34.695312 7.316406 -35.378906 8.234375 -35.890625 C 9.148438 -36.398438 10.117188 -36.65625 11.140625 -36.65625 C 12.671875 -36.65625 13.882812 -36.125 14.78125 -35.0625 C 15.6875 -34.007812 16.140625 -32.753906 16.140625 -31.296875 C 16.140625 -29.179688 15.648438 -27.191406 14.671875 -25.328125 C 13.691406 -23.460938 12.296875 -21.867188 10.484375 -20.546875 C 8.679688 -19.222656 6.570312 -18.3125 4.15625 -17.8125 Z M 17.25 -19.875 C 18.71875 -20.550781 19.910156 -21.582031 20.828125 -22.96875 C 21.742188 -24.351562 22.203125 -25.648438 22.203125 -26.859375 L 18.9375 -31.0625 C 18.96875 -32.0625 19.257812 -32.988281 19.8125 -33.84375 C 20.375 -34.695312 21.113281 -35.378906 22.03125 -35.890625 C 22.945312 -36.398438 23.921875 -36.65625 24.953125 -36.65625 C 26.472656 -36.65625 27.679688 -36.125 28.578125 -35.0625 C 29.484375 -34.007812 29.9375 -32.753906 29.9375 -31.296875 C 29.9375 -29.179688 29.445312 -27.191406 28.46875 -25.328125 C 27.488281 -23.460938 26.097656 -21.867188 24.296875 -20.546875 C 22.492188 -19.222656 20.378906 -18.3125 17.953125 -17.8125 Z M 17.25 -19.875 " />
            </g>
        </g>
    </g>
</svg>