<svg xmlns="http://www.w3.org/2000/svg" xmlns:xlink="http://www.w3.org/1999/xlink" width="500"
    zoomAndPan="magnify" viewBox="0 0 375 374.999991" height="500"
    preserveAspectRatio="xMidYMid meet" version="1.0">
    <defs>
        <g />
    </defs>
    <path stroke-linecap="butt" transform="matrix(5.772478, 0, 0, 5.772478, -10.24671, 28.416507)"
        fill="none" stroke-linejoin="miter"
        d="M 7.101422 42.101295 C 10.117485 40.695107 12.562411 38.570261 14.437553 35.726758 C 16.32826 32.867013 17.273613 30.195392 17.273613 27.711218 L 10.570199 19.062284 C 10.633132 17.015936 11.234044 15.117109 12.374964 13.367156 C 13.531448 11.60164 15.054706 10.195452 16.945412 9.148593 C 18.836119 8.08617 20.835774 7.554959 22.945056 7.554959 C 26.085632 7.554959 28.577927 8.64039 30.421941 10.812605 C 32.281519 12.984143 33.210632 15.577943 33.210632 18.594006 C 33.210632 22.937759 32.203022 27.031132 30.187802 30.874801 C 28.171905 34.718471 25.304717 37.999801 21.586237 40.718792 C 17.882645 43.437782 13.538892 45.304804 8.554979 46.320534 Z M 35.531044 42.101295 C 38.531543 40.695107 40.976469 38.570261 42.867175 35.726758 C 44.757882 32.867013 45.703235 30.195392 45.703235 27.711218 L 38.976813 19.062284 C 39.03907 17.015936 39.648102 15.117109 40.804586 13.367156 C 41.961071 11.60164 43.476884 10.195452 45.35135 9.148593 C 47.242057 8.08617 49.242389 7.554959 51.35167 7.554959 C 54.492246 7.554959 56.991985 8.64039 58.851563 10.812605 C 60.711142 12.984143 61.640931 15.577943 61.640931 18.594006 C 61.640931 22.937759 60.632644 27.031132 58.617424 30.874801 C 56.601528 34.718471 53.73434 37.999801 50.01586 40.718792 C 46.296703 43.437782 41.945507 45.304804 36.960917 46.320534 Z M 35.531044 42.101295 "
        stroke="#006032" stroke-width="2.76" stroke-opacity="1" stroke-miterlimit="4" />
    <g fill="#00bf63" fill-opacity="1">
        <g transform="translate(-10.24671, 507.532196)">
            <g>
                <path
                    d="M 41 -236.078125 C 58.363281 -244.203125 72.492188 -256.484375 83.390625 -272.921875 C 94.296875 -289.359375 99.75 -304.78125 99.75 -319.1875 L 60.953125 -369.0625 C 61.328125 -380.882812 64.835938 -391.875 71.484375 -402.03125 C 78.140625 -412.195312 86.914062 -420.328125 97.8125 -426.421875 C 108.707031 -432.515625 120.25 -435.5625 132.4375 -435.5625 C 150.539062 -435.5625 164.945312 -429.28125 175.65625 -416.71875 C 186.375 -404.164062 191.734375 -389.207031 191.734375 -371.84375 C 191.734375 -346.71875 185.914062 -323.070312 174.28125 -300.90625 C 162.644531 -278.738281 146.113281 -259.800781 124.6875 -244.09375 C 103.257812 -228.394531 78.132812 -217.59375 49.3125 -211.6875 Z M 205.03125 -236.078125 C 222.394531 -244.203125 236.523438 -256.484375 247.421875 -272.921875 C 258.328125 -289.359375 263.78125 -304.78125 263.78125 -319.1875 L 224.984375 -369.0625 C 225.359375 -380.882812 228.867188 -391.875 235.515625 -402.03125 C 242.160156 -412.195312 250.929688 -420.328125 261.828125 -426.421875 C 272.734375 -432.515625 284.28125 -435.5625 296.46875 -435.5625 C 314.570312 -435.5625 328.976562 -429.28125 339.6875 -416.71875 C 350.40625 -404.164062 355.765625 -389.207031 355.765625 -371.84375 C 355.765625 -346.71875 349.945312 -323.070312 338.3125 -300.90625 C 326.675781 -278.738281 310.144531 -259.800781 288.71875 -244.09375 C 267.289062 -228.394531 242.164062 -217.59375 213.34375 -211.6875 Z M 205.03125 -236.078125 " />
            </g>
        </g>
    </g>
</svg>