<svg width="1920" height="1080" viewBox="0 0 1920 1080" fill="none" xmlns="http://www.w3.org/2000/svg">
<mask id="mask0_7_2553" style="mask-type:luminance" maskUnits="userSpaceOnUse" x="569" y="468" width="754" height="93">
<path d="M569.271 468.562H1322.08V560.901H569.271V468.562Z" fill="white"/>
</mask>
<g mask="url(#mask0_7_2553)">
<mask id="mask1_7_2553" style="mask-type:luminance" maskUnits="userSpaceOnUse" x="569" y="468" width="753" height="93">
<path d="M615.442 468.562H1275.78C1288.02 468.562 1299.77 473.427 1308.43 482.083C1317.08 490.745 1321.95 502.484 1321.95 514.734C1321.95 526.979 1317.08 538.719 1308.43 547.38C1299.77 556.036 1288.02 560.901 1275.78 560.901H615.442C603.198 560.901 591.453 556.036 582.797 547.38C574.135 538.719 569.271 526.979 569.271 514.734C569.271 502.484 574.135 490.745 582.797 482.083C591.453 473.427 603.198 468.562 615.442 468.562Z" fill="white"/>
</mask>
<g mask="url(#mask1_7_2553)">
<path d="M569.271 468.562H1322.08V560.901H569.271V468.562Z" fill="#02723C"/>
</g>
</g>
<mask id="mask2_7_2553" style="mask-type:luminance" maskUnits="userSpaceOnUse" x="590" y="488" width="57" height="57">
<path d="M590.516 488.484H646.516V544.484H590.516V488.484Z" fill="white"/>
</mask>
<g mask="url(#mask2_7_2553)">
<path fill-rule="evenodd" clip-rule="evenodd" d="M626.51 529.432L640.224 543.146C641.583 544.505 643.786 544.5 645.146 543.146C646.505 541.786 646.505 539.578 645.146 538.224L631.437 524.521C634.192 520.771 635.823 516.141 635.823 511.13C635.823 498.63 625.677 488.484 613.182 488.484C600.682 488.484 590.536 498.63 590.536 511.13C590.536 523.625 600.682 533.776 613.182 533.776C618.161 533.776 622.765 532.161 626.51 529.432ZM613.182 495.443C621.838 495.443 628.864 502.474 628.864 511.13C628.864 519.786 621.838 526.813 613.182 526.813C604.521 526.813 597.494 519.786 597.494 511.13C597.494 502.474 604.521 495.443 613.182 495.443Z" fill="white"/>
</g>
<path d="M669.883 526.483H666.904L662.445 507.066H664.716L668.362 523.128H668.695L673.049 507.066H675.154L679.508 523.128H679.841L683.508 507.066H685.695L681.258 526.483H678.258L674.216 511.795H673.945L669.883 526.483Z" fill="#D5D4D9"/>
<path d="M689.287 526.483V505.962H691.454V513.92L691.745 513.983C692.787 512.373 694.292 511.566 696.266 511.566C698.027 511.566 699.308 512.019 700.1 512.92C700.891 513.811 701.287 515.191 701.287 517.066V526.483H699.12V517.108C699.12 516.222 699.001 515.514 698.766 514.983C698.542 514.441 698.193 514.056 697.725 513.816C697.251 513.566 696.631 513.441 695.87 513.441C694.537 513.441 693.464 513.873 692.662 514.733C691.855 515.597 691.454 517.003 691.454 518.962V526.483H689.287Z" fill="#D5D4D9"/>
<path d="M709.647 526.753C708.199 526.753 707.069 526.378 706.251 525.628C705.444 524.878 705.043 523.806 705.043 522.399C705.043 521.54 705.22 520.811 705.585 520.212C705.944 519.618 706.501 519.128 707.251 518.753C708.001 518.378 708.986 518.087 710.21 517.878C711.262 517.701 712.069 517.498 712.626 517.274C713.178 517.056 713.548 516.811 713.73 516.545C713.923 516.269 714.022 515.92 714.022 515.503C714.022 514.837 713.793 514.332 713.335 513.983C712.887 513.623 712.158 513.441 711.147 513.441C710.199 513.441 709.387 513.628 708.71 514.003C708.027 514.368 707.402 514.91 706.835 515.628H706.585L705.522 514.128C706.132 513.352 706.918 512.733 707.876 512.274C708.835 511.806 709.923 511.566 711.147 511.566C712.866 511.566 714.137 511.951 714.96 512.712C715.777 513.462 716.189 514.503 716.189 515.837V523.608C716.189 524.415 716.533 524.816 717.23 524.816C717.449 524.816 717.673 524.785 717.897 524.712L718.085 524.753L718.335 526.253C718.168 526.368 717.949 526.451 717.689 526.503C717.439 526.556 717.173 526.587 716.897 526.587C716.09 526.587 715.48 526.415 715.064 526.066C714.658 525.707 714.397 525.181 714.272 524.483L714.001 524.462C713.585 525.243 713.022 525.816 712.314 526.191C711.605 526.566 710.715 526.753 709.647 526.753ZM710.126 525.045C710.928 525.045 711.632 524.858 712.23 524.483C712.84 524.097 713.298 523.561 713.605 522.878C713.923 522.201 714.085 521.415 714.085 520.524V518.67L713.835 518.608C713.512 518.847 713.116 519.04 712.647 519.191C712.173 519.347 711.522 519.483 710.689 519.608C709.824 519.722 709.147 519.899 708.647 520.149C708.147 520.389 707.793 520.691 707.585 521.066C707.376 521.431 707.272 521.873 707.272 522.399C707.272 523.264 707.522 523.92 708.022 524.378C708.533 524.826 709.236 525.045 710.126 525.045Z" fill="#D5D4D9"/>
<path d="M728.649 524.149L729.337 525.712C729.003 526.061 728.55 526.316 727.982 526.483C727.425 526.66 726.821 526.753 726.17 526.753C723.363 526.753 721.962 525.337 721.962 522.503V513.608H719.42V511.837H721.962V508.733L724.128 508.378V511.837H728.837V513.608H724.128V522.295C724.128 523.977 724.857 524.816 726.316 524.816C727.118 524.816 727.805 524.597 728.378 524.149H728.649Z" fill="#D5D4D9"/>
<path d="M750.526 519.649H740.464C740.516 521.441 740.943 522.753 741.734 523.587C742.526 524.41 743.615 524.816 745.005 524.816C746.047 524.816 746.885 524.639 747.526 524.274C748.161 523.899 748.661 523.311 749.026 522.503H749.297L750.714 523.358C750.281 524.415 749.599 525.248 748.672 525.858C747.74 526.457 746.516 526.753 745.005 526.753C743.589 526.753 742.365 526.477 741.339 525.92C740.323 525.368 739.536 524.524 738.984 523.399C738.443 522.264 738.172 520.852 738.172 519.17C738.172 517.503 738.464 516.102 739.047 514.962C739.63 513.826 740.422 512.977 741.422 512.42C742.422 511.852 743.568 511.566 744.859 511.566C746.734 511.566 748.198 512.097 749.255 513.149C750.307 514.207 750.844 515.774 750.859 517.858C750.859 518.665 750.839 519.212 750.797 519.503L750.526 519.649ZM748.714 517.858C748.672 516.306 748.323 515.17 747.672 514.462C747.016 513.753 746.078 513.399 744.859 513.399C743.578 513.399 742.573 513.753 741.839 514.462C741.115 515.17 740.672 516.306 740.505 517.858H748.714Z" fill="#D5D4D9"/>
<path d="M755.451 526.483V513.608H752.889V511.837H755.451C755.285 511.201 755.201 510.587 755.201 510.003C755.201 509.061 755.399 508.264 755.805 507.608C756.206 506.957 756.764 506.472 757.472 506.149C758.191 505.832 759.024 505.67 759.972 505.67C761.43 505.67 762.545 505.993 763.326 506.628L762.493 508.149L762.222 508.212C761.639 507.743 760.889 507.503 759.972 507.503C759.107 507.503 758.456 507.727 758.014 508.17C757.581 508.618 757.368 509.248 757.368 510.066C757.368 510.566 757.451 511.16 757.618 511.837H762.264V513.608H757.618V526.483H755.451Z" fill="#D5D4D9"/>
<path d="M765.885 526.483V513.608H763.322V511.837H765.885C765.718 511.201 765.635 510.587 765.635 510.003C765.635 509.061 765.833 508.264 766.239 507.608C766.64 506.957 767.197 506.472 767.906 506.149C768.624 505.832 769.458 505.67 770.406 505.67C771.864 505.67 772.979 505.993 773.76 506.628L772.926 508.149L772.656 508.212C772.072 507.743 771.322 507.503 770.406 507.503C769.541 507.503 768.89 507.727 768.447 508.17C768.015 508.618 767.801 509.248 767.801 510.066C767.801 510.566 767.885 511.16 768.051 511.837H772.697V513.608H768.051V526.483H765.885Z" fill="#D5D4D9"/>
<path d="M787.007 519.649H776.944C776.996 521.441 777.423 522.753 778.215 523.587C779.007 524.41 780.095 524.816 781.486 524.816C782.527 524.816 783.366 524.639 784.007 524.274C784.642 523.899 785.142 523.311 785.507 522.503H785.777L787.194 523.358C786.762 524.415 786.079 525.248 785.152 525.858C784.22 526.457 782.996 526.753 781.486 526.753C780.069 526.753 778.845 526.477 777.819 525.92C776.803 525.368 776.017 524.524 775.465 523.399C774.923 522.264 774.652 520.852 774.652 519.17C774.652 517.503 774.944 516.102 775.527 514.962C776.111 513.826 776.902 512.977 777.902 512.42C778.902 511.852 780.048 511.566 781.34 511.566C783.215 511.566 784.678 512.097 785.736 513.149C786.788 514.207 787.324 515.774 787.34 517.858C787.34 518.665 787.319 519.212 787.277 519.503L787.007 519.649ZM785.194 517.858C785.152 516.306 784.803 515.17 784.152 514.462C783.496 513.753 782.559 513.399 781.34 513.399C780.059 513.399 779.053 513.753 778.319 514.462C777.595 515.17 777.152 516.306 776.986 517.858H785.194Z" fill="#D5D4D9"/>
<path d="M797.055 526.753C795.764 526.753 794.602 526.462 793.576 525.878C792.545 525.295 791.732 524.436 791.139 523.295C790.555 522.144 790.264 520.769 790.264 519.17C790.264 517.576 790.555 516.207 791.139 515.066C791.732 513.915 792.545 513.045 793.576 512.462C794.602 511.868 795.764 511.566 797.055 511.566C798.607 511.566 799.847 511.858 800.764 512.441C801.68 513.024 802.337 513.806 802.743 514.774L801.264 515.837H801.014C800.607 515.035 800.097 514.441 799.472 514.066C798.847 513.691 798.04 513.503 797.055 513.503C796.149 513.503 795.357 513.722 794.68 514.149C793.998 514.566 793.472 515.201 793.097 516.045C792.722 516.894 792.535 517.936 792.535 519.17C792.535 520.394 792.722 521.431 793.097 522.274C793.482 523.123 794.014 523.764 794.68 524.191C795.357 524.608 796.149 524.816 797.055 524.816C798.081 524.816 798.93 524.587 799.597 524.128C800.264 523.67 800.785 522.951 801.16 521.962H801.451L802.868 522.795C802.477 524.019 801.795 524.983 800.826 525.691C799.852 526.399 798.597 526.753 797.055 526.753Z" fill="#D5D4D9"/>
<path d="M813.649 524.149L814.337 525.712C814.003 526.061 813.55 526.316 812.982 526.483C812.425 526.66 811.821 526.753 811.17 526.753C808.363 526.753 806.962 525.337 806.962 522.503V513.608H804.42V511.837H806.962V508.733L809.128 508.378V511.837H813.837V513.608H809.128V522.295C809.128 523.977 809.857 524.816 811.316 524.816C812.118 524.816 812.805 524.597 813.378 524.149H813.649Z" fill="#D5D4D9"/>
<path d="M828.839 526.483H826.089L822.506 511.837H824.652L827.423 523.962H827.693L831.11 511.837H833.381L836.902 523.962H837.173L839.902 511.837H841.964L838.423 526.483H835.673L832.339 515.128H832.048L828.839 526.483Z" fill="#D5D4D9"/>
<path d="M851.311 526.753C849.936 526.753 848.733 526.462 847.707 525.878C846.691 525.295 845.905 524.441 845.353 523.316C844.796 522.181 844.52 520.795 844.52 519.17C844.52 517.545 844.796 516.165 845.353 515.024C845.905 513.889 846.691 513.024 847.707 512.441C848.733 511.858 849.936 511.566 851.311 511.566C852.697 511.566 853.9 511.858 854.915 512.441C855.941 513.024 856.733 513.889 857.29 515.024C857.842 516.165 858.124 517.545 858.124 519.17C858.124 520.795 857.842 522.181 857.29 523.316C856.733 524.441 855.941 525.295 854.915 525.878C853.9 526.462 852.697 526.753 851.311 526.753ZM851.311 524.816C852.77 524.816 853.884 524.358 854.665 523.441C855.441 522.524 855.832 521.102 855.832 519.17C855.832 517.227 855.441 515.795 854.665 514.878C853.884 513.962 852.77 513.503 851.311 513.503C849.853 513.503 848.733 513.972 847.957 514.899C847.176 515.816 846.79 517.243 846.79 519.17C846.79 521.102 847.176 522.524 847.957 523.441C848.733 524.358 849.853 524.816 851.311 524.816Z" fill="#D5D4D9"/>
<path d="M866.951 526.753C865.294 526.753 864.065 526.316 863.263 525.441C862.456 524.566 862.055 523.29 862.055 521.608V511.837H864.201V521.545C864.201 523.769 865.247 524.878 867.346 524.878C868.664 524.878 869.706 524.451 870.471 523.587C871.247 522.712 871.638 521.306 871.638 519.358V511.837H873.805V526.483H871.763V524.191L871.492 524.128C870.977 525.019 870.367 525.681 869.659 526.108C868.961 526.535 868.06 526.753 866.951 526.753Z" fill="#D5D4D9"/>
<path d="M882.189 526.753C881.147 526.753 880.324 526.462 879.73 525.878C879.147 525.295 878.855 524.42 878.855 523.253V505.962H881.022V523.108C881.022 523.707 881.132 524.144 881.355 524.42C881.59 524.686 881.96 524.816 882.46 524.816C882.762 524.816 883.069 524.769 883.376 524.67L883.564 524.733L883.814 526.42C883.658 526.529 883.428 526.613 883.126 526.67C882.835 526.722 882.522 526.753 882.189 526.753Z" fill="#D5D4D9"/>
<path d="M891.903 526.753C890.736 526.753 889.7 526.477 888.799 525.92C887.893 525.352 887.184 524.503 886.674 523.378C886.174 522.243 885.924 520.837 885.924 519.17C885.924 517.493 886.184 516.087 886.715 514.962C887.257 513.826 887.992 512.977 888.924 512.42C889.851 511.852 890.934 511.566 892.174 511.566C893.143 511.566 894.018 511.753 894.799 512.128C895.575 512.493 896.242 513.087 896.799 513.92L897.07 513.878V505.962H899.236V526.483H897.07V524.337L896.799 524.295C896.325 525.019 895.679 525.608 894.861 526.066C894.038 526.524 893.054 526.753 891.903 526.753ZM892.59 524.816C893.95 524.816 895.033 524.352 895.84 523.42C896.658 522.493 897.07 521.076 897.07 519.17C897.07 517.253 896.658 515.832 895.84 514.899C895.033 513.972 893.95 513.503 892.59 513.503C891.184 513.503 890.101 513.962 889.34 514.878C888.575 515.785 888.195 517.212 888.195 519.17C888.195 522.936 889.658 524.816 892.59 524.816Z" fill="#D5D4D9"/>
<path d="M911.01 526.483V511.837H913.072V514.003L913.343 514.066C913.843 513.233 914.437 512.608 915.135 512.191C915.843 511.774 916.687 511.566 917.676 511.566C918.812 511.566 919.687 511.785 920.301 512.212C920.926 512.644 921.411 513.332 921.76 514.274H922.031C922.541 513.389 923.166 512.712 923.906 512.253C924.64 511.795 925.551 511.566 926.635 511.566C928.135 511.566 929.249 511.977 929.989 512.795C930.723 513.602 931.093 514.837 931.093 516.503V526.483H928.947V516.545C928.947 515.493 928.718 514.712 928.26 514.212C927.812 513.701 927.098 513.441 926.114 513.441C924.947 513.441 923.989 513.873 923.239 514.733C922.499 515.582 922.135 516.977 922.135 518.92V526.483H919.968V516.545C919.968 515.493 919.744 514.712 919.301 514.212C918.854 513.701 918.14 513.441 917.156 513.441C915.989 513.441 915.031 513.858 914.281 514.691C913.541 515.514 913.176 516.847 913.176 518.691V526.483H911.01Z" fill="#D5D4D9"/>
<path d="M941.821 526.753C940.446 526.753 939.243 526.462 938.217 525.878C937.201 525.295 936.415 524.441 935.863 523.316C935.305 522.181 935.029 520.795 935.029 519.17C935.029 517.545 935.305 516.165 935.863 515.024C936.415 513.889 937.201 513.024 938.217 512.441C939.243 511.858 940.446 511.566 941.821 511.566C943.206 511.566 944.41 511.858 945.425 512.441C946.451 513.024 947.243 513.889 947.8 515.024C948.352 516.165 948.633 517.545 948.633 519.17C948.633 520.795 948.352 522.181 947.8 523.316C947.243 524.441 946.451 525.295 945.425 525.878C944.41 526.462 943.206 526.753 941.821 526.753ZM941.821 524.816C943.279 524.816 944.394 524.358 945.175 523.441C945.951 522.524 946.342 521.102 946.342 519.17C946.342 517.227 945.951 515.795 945.175 514.878C944.394 513.962 943.279 513.503 941.821 513.503C940.363 513.503 939.243 513.972 938.467 514.899C937.686 515.816 937.3 517.243 937.3 519.17C937.3 521.102 937.686 522.524 938.467 523.441C939.243 524.358 940.363 524.816 941.821 524.816Z" fill="#D5D4D9"/>
<path d="M959.502 526.483H956.523L950.939 511.837H953.294L957.898 524.003H958.189L962.773 511.837H965.044L959.502 526.483Z" fill="#D5D4D9"/>
<path d="M969.396 509.003C968.923 509.003 968.542 508.868 968.251 508.587C967.969 508.295 967.834 507.931 967.834 507.483C967.834 507.04 967.969 506.681 968.251 506.399C968.542 506.108 968.923 505.962 969.396 505.962C969.855 505.962 970.219 506.108 970.501 506.399C970.792 506.681 970.938 507.04 970.938 507.483C970.938 507.931 970.792 508.295 970.501 508.587C970.219 508.868 969.855 509.003 969.396 509.003ZM968.292 526.483V511.837H970.459V526.483H968.292Z" fill="#D5D4D9"/>
<path d="M975.553 526.483V511.837H977.615V514.128L977.886 514.212C978.386 513.352 979.011 512.701 979.761 512.253C980.521 511.795 981.449 511.566 982.532 511.566C984.292 511.566 985.574 512.019 986.365 512.92C987.157 513.811 987.553 515.191 987.553 517.066V526.483H985.386V517.108C985.386 516.222 985.266 515.514 985.032 514.983C984.808 514.441 984.459 514.056 983.99 513.816C983.516 513.566 982.896 513.441 982.136 513.441C980.813 513.441 979.745 513.878 978.928 514.753C978.12 515.628 977.719 517.035 977.719 518.962V526.483H975.553Z" fill="#D5D4D9"/>
<path d="M997.413 532.691C995.106 532.691 993.419 532.3 992.351 531.524C991.294 530.759 990.768 529.743 990.768 528.483C990.768 527.649 991.007 526.988 991.497 526.503C991.997 526.019 992.715 525.67 993.663 525.462V525.191C993.215 524.931 992.877 524.623 992.643 524.274C992.419 523.931 992.309 523.519 992.309 523.045C992.309 522.477 992.486 522.019 992.851 521.67C993.21 521.311 993.747 521.04 994.455 520.858V520.566C992.856 519.733 992.059 518.373 992.059 516.483C992.059 515.524 992.273 514.681 992.705 513.941C993.148 513.191 993.773 512.608 994.58 512.191C995.382 511.774 996.32 511.566 997.393 511.566C998.611 511.566 999.632 511.837 1000.46 512.378C1000.77 512.035 1001.01 511.665 1001.16 511.274C1001.31 510.873 1001.41 510.42 1001.46 509.92L1001.75 509.753L1003.52 510.191C1003.43 510.931 1003.21 511.556 1002.85 512.066C1002.49 512.582 1001.98 513.003 1001.33 513.337V513.628C1001.8 513.993 1002.15 514.42 1002.37 514.92C1002.59 515.42 1002.71 516.003 1002.71 516.67C1002.71 517.587 1002.48 518.415 1002.04 519.149C1001.59 519.889 1000.97 520.472 1000.16 520.899C999.356 521.316 998.434 521.524 997.393 521.524C997.268 521.524 997.044 521.514 996.726 521.483C996.361 521.472 996.101 521.462 995.934 521.462C995.476 521.462 995.106 521.587 994.83 521.837C994.564 522.076 994.434 522.373 994.434 522.733C994.434 523.191 994.58 523.535 994.872 523.753C995.163 523.977 995.648 524.102 996.33 524.128L999.809 524.233C1001.29 524.29 1002.4 524.644 1003.12 525.295C1003.84 525.936 1004.21 526.837 1004.21 528.003C1004.21 528.878 1003.97 529.67 1003.5 530.378C1003.04 531.087 1002.29 531.649 1001.27 532.066C1000.25 532.483 998.965 532.691 997.413 532.691ZM997.393 519.649C998.419 519.649 999.215 519.389 999.788 518.858C1000.36 518.316 1000.64 517.561 1000.64 516.587C1000.64 515.576 1000.36 514.795 999.788 514.253C999.231 513.701 998.434 513.42 997.393 513.42C996.335 513.42 995.528 513.691 994.976 514.233C994.434 514.774 994.163 515.561 994.163 516.587C994.163 517.561 994.434 518.316 994.976 518.858C995.528 519.389 996.335 519.649 997.393 519.649ZM997.413 530.837C998.497 530.837 999.377 530.717 1000.06 530.483C1000.74 530.243 1001.23 529.925 1001.54 529.524C1001.84 529.134 1002 528.696 1002 528.212C1002 527.779 1001.91 527.425 1001.75 527.149C1001.58 526.884 1001.31 526.681 1000.96 526.545C1000.59 526.42 1000.1 526.347 999.476 526.316L996.184 526.149H995.726C993.893 526.181 992.976 526.889 992.976 528.295C992.976 529.988 994.455 530.837 997.413 530.837Z" fill="#D5D4D9"/>
<path d="M1014.47 526.483V507.066H1021.52C1022.82 507.066 1023.91 507.285 1024.79 507.712C1025.67 508.144 1026.34 508.753 1026.79 509.545C1027.23 510.326 1027.45 511.248 1027.45 512.316C1027.45 513.524 1027.15 514.524 1026.54 515.316C1025.94 516.097 1025.01 516.681 1023.75 517.066V517.337C1024.37 517.587 1024.88 517.977 1025.27 518.503C1025.67 519.035 1026.04 519.826 1026.37 520.878L1028.16 526.483H1025.83L1023.89 520.545C1023.65 519.852 1023.38 519.306 1023.08 518.899C1022.79 518.498 1022.4 518.212 1021.93 518.045C1021.47 517.868 1020.89 517.774 1020.18 517.774H1016.75V526.483H1014.47ZM1021.47 515.837C1022.68 515.837 1023.58 515.561 1024.16 515.003C1024.76 514.436 1025.06 513.576 1025.06 512.42C1025.06 511.269 1024.76 510.415 1024.16 509.858C1023.58 509.29 1022.68 509.003 1021.47 509.003H1016.75V515.837H1021.47Z" fill="#D5D4D9"/>
<path d="M1037.64 526.753C1036.29 526.753 1035.11 526.514 1034.1 526.045C1033.1 525.576 1032.31 524.899 1031.76 524.024C1031.22 523.139 1030.95 522.108 1030.95 520.941C1030.95 519.582 1031.29 518.477 1031.99 517.628C1032.68 516.769 1033.69 516.066 1035.01 515.524L1035.05 515.253C1034.4 514.451 1033.94 513.733 1033.68 513.108C1033.41 512.483 1033.28 511.785 1033.28 511.003C1033.28 510.212 1033.47 509.498 1033.85 508.858C1034.22 508.222 1034.76 507.722 1035.47 507.358C1036.19 506.983 1037.04 506.795 1038.01 506.795C1038.94 506.795 1039.75 506.957 1040.43 507.274C1041.11 507.597 1041.63 508.055 1041.99 508.649C1042.37 509.233 1042.55 509.93 1042.55 510.733C1042.55 511.93 1042.18 512.957 1041.45 513.816C1040.73 514.665 1039.63 515.358 1038.16 515.899L1038.14 516.17L1042.7 522.191C1043.06 521.555 1043.31 520.805 1043.45 519.941C1043.58 519.066 1043.66 518.097 1043.66 517.024V516.608H1045.6C1045.6 519.665 1045.06 522.04 1043.99 523.733C1044.37 524.149 1044.68 524.436 1044.93 524.587C1045.19 524.727 1045.46 524.795 1045.74 524.795C1046 524.795 1046.26 524.753 1046.51 524.67L1046.7 524.733L1047.03 526.316C1046.88 526.415 1046.66 526.488 1046.39 526.545C1046.12 526.613 1045.86 526.649 1045.6 526.649C1044.98 526.649 1044.44 526.524 1043.97 526.274C1043.51 526.014 1043.1 525.623 1042.74 525.108H1042.47C1041.39 526.207 1039.77 526.753 1037.64 526.753ZM1036.99 514.67C1038.16 514.186 1039.02 513.649 1039.57 513.066C1040.14 512.483 1040.43 511.733 1040.43 510.816C1040.43 510.139 1040.21 509.597 1039.78 509.191C1039.37 508.774 1038.77 508.566 1038.01 508.566C1037.25 508.566 1036.63 508.795 1036.16 509.253C1035.68 509.701 1035.45 510.305 1035.45 511.066C1035.45 511.639 1035.56 512.17 1035.78 512.67C1036 513.17 1036.41 513.837 1036.99 514.67ZM1037.72 524.816C1039.19 524.816 1040.4 524.451 1041.35 523.712L1035.95 516.733C1035.08 517.139 1034.43 517.665 1033.97 518.316C1033.51 518.972 1033.28 519.795 1033.28 520.795C1033.28 521.66 1033.46 522.394 1033.82 523.003C1034.2 523.602 1034.71 524.055 1035.37 524.358C1036.03 524.665 1036.81 524.816 1037.72 524.816Z" fill="#D5D4D9"/>
<path d="M1056.75 507.066C1058.72 507.066 1060.4 507.42 1061.81 508.128C1063.23 508.837 1064.32 509.915 1065.08 511.358C1065.84 512.79 1066.23 514.597 1066.23 516.774C1066.23 518.957 1065.84 520.769 1065.08 522.212C1064.32 523.66 1063.23 524.733 1061.81 525.441C1060.4 526.139 1058.72 526.483 1056.75 526.483H1050.48V507.066H1056.75ZM1056.52 524.545C1058.14 524.545 1059.48 524.295 1060.54 523.795C1061.61 523.285 1062.41 522.457 1062.96 521.316C1063.51 520.181 1063.79 518.665 1063.79 516.774C1063.79 514.889 1063.51 513.373 1062.96 512.233C1062.41 511.097 1061.61 510.274 1060.54 509.774C1059.48 509.264 1058.14 509.003 1056.52 509.003H1052.75V524.545H1056.52Z" fill="#D5D4D9"/>
<path d="M1084.73 524.149L1085.42 525.712C1085.08 526.061 1084.63 526.316 1084.06 526.483C1083.51 526.66 1082.9 526.753 1082.25 526.753C1079.44 526.753 1078.04 525.337 1078.04 522.503V513.608H1075.5V511.837H1078.04V508.733L1080.21 508.378V511.837H1084.92V513.608H1080.21V522.295C1080.21 523.977 1080.94 524.816 1082.4 524.816C1083.2 524.816 1083.89 524.597 1084.46 524.149H1084.73Z" fill="#D5D4D9"/>
<path d="M1094.38 526.753C1093 526.753 1091.8 526.462 1090.78 525.878C1089.76 525.295 1088.97 524.441 1088.42 523.316C1087.86 522.181 1087.59 520.795 1087.59 519.17C1087.59 517.545 1087.86 516.165 1088.42 515.024C1088.97 513.889 1089.76 513.024 1090.78 512.441C1091.8 511.858 1093 511.566 1094.38 511.566C1095.76 511.566 1096.97 511.858 1097.98 512.441C1099.01 513.024 1099.8 513.889 1100.36 515.024C1100.91 516.165 1101.19 517.545 1101.19 519.17C1101.19 520.795 1100.91 522.181 1100.36 523.316C1099.8 524.441 1099.01 525.295 1097.98 525.878C1096.97 526.462 1095.76 526.753 1094.38 526.753ZM1094.38 524.816C1095.84 524.816 1096.95 524.358 1097.73 523.441C1098.51 522.524 1098.9 521.102 1098.9 519.17C1098.9 517.227 1098.51 515.795 1097.73 514.878C1096.95 513.962 1095.84 513.503 1094.38 513.503C1092.92 513.503 1091.8 513.972 1091.03 514.899C1090.24 515.816 1089.86 517.243 1089.86 519.17C1089.86 521.102 1090.24 522.524 1091.03 523.441C1091.8 524.358 1092.92 524.816 1094.38 524.816Z" fill="#D5D4D9"/>
<path d="M1120.18 526.753C1118.48 526.753 1116.97 526.368 1115.64 525.587C1114.31 524.811 1113.27 523.67 1112.52 522.17C1111.77 520.67 1111.39 518.873 1111.39 516.774C1111.39 514.68 1111.77 512.878 1112.52 511.378C1113.27 509.878 1114.31 508.743 1115.64 507.962C1116.97 507.186 1118.48 506.795 1120.18 506.795C1121.98 506.795 1123.49 507.144 1124.7 507.837C1125.91 508.519 1126.78 509.545 1127.31 510.92L1125.85 511.899H1125.52C1124.98 510.79 1124.29 510.003 1123.43 509.545C1122.58 509.076 1121.5 508.837 1120.18 508.837C1118.96 508.837 1117.87 509.118 1116.93 509.67C1115.98 510.212 1115.23 511.076 1114.66 512.253C1114.1 513.436 1113.83 514.941 1113.83 516.774C1113.83 518.623 1114.1 520.139 1114.66 521.316C1115.23 522.483 1115.98 523.347 1116.93 523.899C1117.87 524.441 1118.96 524.712 1120.18 524.712C1121.58 524.712 1122.73 524.394 1123.62 523.753C1124.52 523.118 1125.19 522.097 1125.62 520.691H1125.95L1127.47 521.441C1127.02 523.149 1126.16 524.462 1124.91 525.378C1123.67 526.295 1122.1 526.753 1120.18 526.753Z" fill="#D5D4D9"/>
<path d="M1139.14 526.753C1137.45 526.753 1135.95 526.394 1134.64 525.67C1133.33 524.951 1132.3 523.847 1131.55 522.358C1130.8 520.858 1130.43 518.998 1130.43 516.774C1130.43 514.555 1130.8 512.701 1131.55 511.212C1132.3 509.727 1133.33 508.623 1134.64 507.899C1135.95 507.165 1137.45 506.795 1139.14 506.795C1140.81 506.795 1142.31 507.165 1143.62 507.899C1144.93 508.623 1145.97 509.727 1146.72 511.212C1147.47 512.701 1147.84 514.555 1147.84 516.774C1147.84 518.998 1147.47 520.858 1146.72 522.358C1145.97 523.847 1144.93 524.951 1143.62 525.67C1142.31 526.394 1140.81 526.753 1139.14 526.753ZM1139.14 524.649C1141.15 524.649 1142.7 524.019 1143.78 522.753C1144.87 521.493 1145.41 519.498 1145.41 516.774C1145.41 514.055 1144.87 512.061 1143.78 510.795C1142.7 509.535 1141.15 508.899 1139.14 508.899C1134.95 508.899 1132.87 511.524 1132.87 516.774C1132.87 522.024 1134.95 524.649 1139.14 524.649Z" fill="#D5D4D9"/>
<path d="M1159.99 526.753C1158.37 526.753 1156.93 526.389 1155.68 525.649C1154.44 524.899 1153.47 523.785 1152.76 522.295C1152.06 520.795 1151.72 518.957 1151.72 516.774C1151.72 514.597 1152.1 512.764 1152.85 511.274C1153.6 509.774 1154.63 508.66 1155.95 507.92C1157.28 507.17 1158.81 506.795 1160.55 506.795C1162.41 506.795 1163.94 507.128 1165.14 507.795C1166.33 508.462 1167.17 509.462 1167.66 510.795L1166.18 511.67H1165.85C1165.35 510.66 1164.66 509.936 1163.8 509.503C1162.94 509.061 1161.86 508.837 1160.55 508.837C1156.29 508.837 1154.16 511.483 1154.16 516.774C1154.16 519.524 1154.69 521.54 1155.76 522.816C1156.83 524.082 1158.33 524.712 1160.26 524.712C1162.04 524.712 1163.37 524.311 1164.24 523.503C1165.13 522.701 1165.57 521.43 1165.57 519.691V517.983H1160.05V516.149H1167.78V526.483H1165.68V523.878L1165.39 523.816C1164.87 524.816 1164.16 525.561 1163.24 526.045C1162.32 526.514 1161.24 526.753 1159.99 526.753Z" fill="#D5D4D9"/>
<path d="M1178.44 526.753C1177.22 526.753 1176.12 526.592 1175.15 526.274C1174.19 525.941 1173.38 525.503 1172.73 524.962C1172.09 524.42 1171.61 523.826 1171.29 523.17L1172.54 521.67H1172.88C1174.07 523.701 1175.93 524.712 1178.44 524.712C1179.9 524.712 1180.98 524.41 1181.69 523.795C1182.41 523.186 1182.77 522.332 1182.77 521.233C1182.77 520.597 1182.65 520.061 1182.42 519.628C1182.18 519.186 1181.79 518.805 1181.25 518.483C1180.71 518.165 1179.97 517.894 1179.04 517.67L1176.79 517.108C1175.1 516.707 1173.85 516.061 1173.04 515.17C1172.24 514.285 1171.84 513.16 1171.84 511.795C1171.84 510.826 1172.09 509.962 1172.59 509.212C1173.09 508.451 1173.81 507.858 1174.75 507.441C1175.71 507.014 1176.86 506.795 1178.19 506.795C1179.65 506.795 1180.88 507.003 1181.88 507.42C1182.89 507.826 1183.7 508.441 1184.29 509.274L1183.19 510.774H1182.86C1182.3 510.082 1181.64 509.582 1180.88 509.274C1180.11 508.957 1179.22 508.795 1178.19 508.795C1176.84 508.795 1175.82 509.061 1175.13 509.587C1174.45 510.102 1174.11 510.816 1174.11 511.733C1174.11 512.608 1174.36 513.311 1174.86 513.837C1175.37 514.352 1176.22 514.748 1177.42 515.024L1179.75 515.587C1181.63 516.035 1182.99 516.712 1183.84 517.628C1184.68 518.545 1185.11 519.712 1185.11 521.128C1185.11 522.227 1184.86 523.201 1184.36 524.045C1183.87 524.894 1183.13 525.561 1182.13 526.045C1181.13 526.514 1179.9 526.753 1178.44 526.753Z" fill="#D5D4D9"/>
<path d="M1195.8 526.483V505.962H1197.97V513.92L1198.26 513.983C1199.3 512.373 1200.81 511.566 1202.78 511.566C1204.54 511.566 1205.82 512.019 1206.62 512.92C1207.41 513.811 1207.8 515.191 1207.8 517.066V526.483H1205.64V517.108C1205.64 516.222 1205.52 515.514 1205.28 514.983C1205.06 514.441 1204.71 514.056 1204.24 513.816C1203.77 513.566 1203.15 513.441 1202.39 513.441C1201.05 513.441 1199.98 513.873 1199.18 514.733C1198.37 515.597 1197.97 517.003 1197.97 518.962V526.483H1195.8Z" fill="#D5D4D9"/>
<path d="M1216.16 526.753C1214.71 526.753 1213.58 526.378 1212.76 525.628C1211.96 524.878 1211.56 523.806 1211.56 522.399C1211.56 521.54 1211.73 520.811 1212.1 520.212C1212.46 519.618 1213.01 519.128 1213.76 518.753C1214.51 518.378 1215.5 518.087 1216.72 517.878C1217.78 517.701 1218.58 517.498 1219.14 517.274C1219.69 517.056 1220.06 516.811 1220.24 516.545C1220.44 516.269 1220.54 515.92 1220.54 515.503C1220.54 514.837 1220.31 514.332 1219.85 513.983C1219.4 513.623 1218.67 513.441 1217.66 513.441C1216.71 513.441 1215.9 513.628 1215.22 514.003C1214.54 514.368 1213.92 514.91 1213.35 515.628H1213.1L1212.04 514.128C1212.65 513.352 1213.43 512.733 1214.39 512.274C1215.35 511.806 1216.44 511.566 1217.66 511.566C1219.38 511.566 1220.65 511.951 1221.47 512.712C1222.29 513.462 1222.7 514.503 1222.7 515.837V523.608C1222.7 524.415 1223.05 524.816 1223.74 524.816C1223.96 524.816 1224.19 524.785 1224.41 524.712L1224.6 524.753L1224.85 526.253C1224.68 526.368 1224.46 526.451 1224.2 526.503C1223.95 526.556 1223.69 526.587 1223.41 526.587C1222.6 526.587 1221.99 526.415 1221.58 526.066C1221.17 525.707 1220.91 525.181 1220.79 524.483L1220.51 524.462C1220.1 525.243 1219.54 525.816 1218.83 526.191C1218.12 526.566 1217.23 526.753 1216.16 526.753ZM1216.64 525.045C1217.44 525.045 1218.15 524.858 1218.74 524.483C1219.35 524.097 1219.81 523.561 1220.12 522.878C1220.44 522.201 1220.6 521.415 1220.6 520.524V518.67L1220.35 518.608C1220.03 518.847 1219.63 519.04 1219.16 519.191C1218.69 519.347 1218.04 519.483 1217.2 519.608C1216.34 519.722 1215.66 519.899 1215.16 520.149C1214.66 520.389 1214.31 520.691 1214.1 521.066C1213.89 521.431 1213.79 521.873 1213.79 522.399C1213.79 523.264 1214.04 523.92 1214.54 524.378C1215.05 524.826 1215.75 525.045 1216.64 525.045Z" fill="#D5D4D9"/>
<path d="M1234.54 526.483H1231.56L1225.97 511.837H1228.33L1232.93 524.003H1233.22L1237.81 511.837H1240.08L1234.54 526.483Z" fill="#D5D4D9"/>
<path d="M1254.74 519.649H1244.68C1244.73 521.441 1245.16 522.753 1245.95 523.587C1246.74 524.41 1247.83 524.816 1249.22 524.816C1250.26 524.816 1251.1 524.639 1251.74 524.274C1252.38 523.899 1252.88 523.311 1253.24 522.503H1253.51L1254.93 523.358C1254.5 524.415 1253.82 525.248 1252.89 525.858C1251.96 526.457 1250.73 526.753 1249.22 526.753C1247.81 526.753 1246.58 526.477 1245.56 525.92C1244.54 525.368 1243.75 524.524 1243.2 523.399C1242.66 522.264 1242.39 520.852 1242.39 519.17C1242.39 517.503 1242.68 516.102 1243.26 514.962C1243.85 513.826 1244.64 512.977 1245.64 512.42C1246.64 511.852 1247.78 511.566 1249.08 511.566C1250.95 511.566 1252.41 512.097 1253.47 513.149C1254.52 514.207 1255.06 515.774 1255.08 517.858C1255.08 518.665 1255.06 519.212 1255.01 519.503L1254.74 519.649ZM1252.93 517.858C1252.89 516.306 1252.54 515.17 1251.89 514.462C1251.23 513.753 1250.29 513.399 1249.08 513.399C1247.79 513.399 1246.79 513.753 1246.06 514.462C1245.33 515.17 1244.89 516.306 1244.72 517.858H1252.93Z" fill="#D5D4D9"/>
<path d="M1261.56 519.503C1261.56 518.91 1261.63 518.394 1261.77 517.962C1261.92 517.535 1262.17 517.123 1262.5 516.733C1262.83 516.347 1263.3 515.915 1263.92 515.441L1265.13 514.503C1265.67 514.102 1266.05 513.66 1266.29 513.17C1266.54 512.686 1266.67 512.123 1266.67 511.483C1266.67 510.68 1266.37 510.04 1265.77 509.566C1265.17 509.082 1264.33 508.837 1263.25 508.837C1261.38 508.837 1259.98 509.67 1259.06 511.337L1258.75 511.399L1257.4 509.962C1258.76 507.852 1260.71 506.795 1263.25 506.795C1264.53 506.795 1265.59 507.003 1266.46 507.42C1267.33 507.826 1267.98 508.378 1268.4 509.087C1268.82 509.795 1269.04 510.597 1269.04 511.483C1269.04 512.498 1268.81 513.352 1268.35 514.045C1267.91 514.727 1267.26 515.399 1266.4 516.066L1265.33 516.878C1264.9 517.212 1264.57 517.503 1264.35 517.753C1264.15 518.003 1263.99 518.274 1263.9 518.566C1263.81 518.858 1263.77 519.222 1263.77 519.649V520.045H1261.56V519.503ZM1262.6 526.608C1262.1 526.608 1261.71 526.472 1261.42 526.191C1261.13 525.915 1260.98 525.54 1260.98 525.066C1260.98 524.608 1261.13 524.233 1261.42 523.941C1261.71 523.639 1262.1 523.483 1262.6 523.483C1263.12 523.483 1263.52 523.628 1263.81 523.92C1264.1 524.201 1264.25 524.576 1264.25 525.045C1264.25 525.503 1264.1 525.878 1263.81 526.17C1263.52 526.462 1263.12 526.608 1262.6 526.608Z" fill="#D5D4D9"/>
</svg>
